<svg height="auto" viewBox="0 0 2000 1000" xmlns="http://www.w3.org/2000/svg">
<path d="M0 997.523c21-8.639 63-27.591 105-43.194 42-15.603 63-14.366 105-34.819 42-20.453 63-47.792 105-67.447 42-19.656 63-26.405 105-30.83 42-4.424 63 35.128 105 8.706 42-26.423 63-132.719 105-140.816 42-8.097 63 83.778 105 100.33 42 16.551 63-7.913 105-17.571 42-9.658 63-5.552 105-30.72 42-25.17 63-87.718 105-95.126 42-7.408 63 54.36 105 58.085 42 3.725 63 13.424 105-39.46 42-52.885 63-182.35 105-224.963 42-42.612 63-18.996 105 11.901 42 30.898 63 191.285 105 142.585 42-48.7 63-365.072 105-386.085 42-21.013 63 281.1 105 281.022 42-.08 63-240.011 105-281.418 42-41.406 84 59.508 105 74.385l5 717.912H0Z" fill="#444cf71a"/><path d="M0 997.523c21-8.639 63-27.591 105-43.194 42-15.603 63-14.366 105-34.819 42-20.453 63-47.792 105-67.447 42-19.656 63-26.405 105-30.83 42-4.424 63 35.128 105 8.706 42-26.423 63-132.719 105-140.816 42-8.097 63 83.778 105 100.33 42 16.551 63-7.913 105-17.571 42-9.658 63-5.552 105-30.72 42-25.17 63-87.718 105-95.126 42-7.408 63 54.36 105 58.085 42 3.725 63 13.424 105-39.46 42-52.885 63-182.35 105-224.963 42-42.612 63-18.996 105 11.901 42 30.898 63 191.285 105 142.585 42-48.7 63-365.072 105-386.085 42-21.013 63 281.1 105 281.022 42-.08 63-240.011 105-281.418 42-41.406 84 59.508 105 74.385" fill="none" stroke="#444cf7" stroke-width="4"/><g fill="#444cf7"><circle cy="997.523" r="8"/><circle cx="105" cy="954.329" r="8"/><circle cx="210" cy="919.51" r="8"/><circle cx="315" cy="852.063" r="8"/><circle cx="420" cy="821.234" r="8"/><circle cx="525" cy="829.939" r="8"/><circle cx="630" cy="689.123" r="8"/><circle cx="735" cy="789.452" r="8"/><circle cx="840" cy="771.882" r="8"/><circle cx="945" cy="741.161" r="8"/><circle cx="1050" cy="646.036" r="8"/><circle cx="1155" cy="704.121" r="8"/><circle cx="1260" cy="664.66" r="8"/><circle cx="1365" cy="439.698" r="8"/><circle cx="1470" cy="451.599" r="8"/><circle cx="1575" cy="594.184" r="8"/><circle cx="1680" cy="208.099" r="8"/><circle cx="1785" cy="489.121" r="8"/><circle cx="1890" cy="207.703" r="8"/><circle cx="1995" cy="282.088" r="8"/></g></svg>